<svg width="2039" height="1837" viewBox="0 0 2039 1837" xmlns="http://www.w3.org/2000/svg">
  <!-- Background matches site #111 -->
  <rect width="2039" height="1837" fill="#111" />
  
  <!-- Bear head shape -->
  <path d="M 1020, 1600 
           C 700, 1600, 450, 1400, 450, 1050 
           C 450, 850, 500, 750, 550, 700 
           C 500, 600, 520, 450, 650, 400 
           C 780, 350, 850, 450, 880, 550 
           C 920, 540, 970, 530, 1020, 530 
           C 1070, 530, 1120, 540, 1160, 550 
           C 1190, 450, 1260, 350, 1390, 400 
           C 1520, 450, 1540, 600, 1490, 700 
           C 1540, 750, 1590, 850, 1590, 1050 
           C 1590, 1400, 1340, 1600, 1020, 1600 
           Z" 
        fill="white" />
  
  <!-- Left Eye -->
  <path d="M 720, 950 
           Q 820, 940, 880, 1080 
           Q 780, 1050, 720, 950 
           Z" 
        fill="#111" />
  
  <!-- Right Eye -->
  <path d="M 1320, 950 
           Q 1220, 940, 1160, 1080 
           Q 1260, 1050, 1320, 950 
           Z" 
        fill="#111" />
  
  <!-- Nose/Snout -->
  <path d="M 940, 1250 
           L 1020, 1220 
           L 1100, 1250 
           L 1020, 1320 
           Z" 
        fill="#111" />
</svg>